<?xml version="1.0" encoding="UTF-8"?>
<svg width="159px" height="159px" viewBox="0 0 159 159" version="1.1" xmlns="http://www.w3.org/2000/svg" xmlns:xlink="http://www.w3.org/1999/xlink">
    <!-- Generator: Sketch 55.2 (78181) - https://sketchapp.com -->
    <title>clone</title>
    <desc>Created with Sketch.</desc>
    <g id="Page-1" stroke="none" stroke-width="1" fill="none" fill-rule="evenodd">
        <g id="clone" fill="#007EFF" fill-rule="nonzero">
            <path d="M147.642857,144.803571 L147.642857,48.2678571 C147.642857,47.4988839 147.361886,46.8334263 146.799944,46.2714844 C146.238002,45.7095424 145.572545,45.4285714 144.803571,45.4285714 L48.2678571,45.4285714 C47.4988839,45.4285714 46.8334263,45.7095424 46.2714844,46.2714844 C45.7095424,46.8334263 45.4285714,47.4988839 45.4285714,48.2678571 L45.4285714,144.803571 C45.4285714,145.572545 45.7095424,146.238002 46.2714844,146.799944 C46.8334263,147.361886 47.4988839,147.642857 48.2678571,147.642857 L144.803571,147.642857 C145.572545,147.642857 146.238002,147.361886 146.799944,146.799944 C147.361886,146.238002 147.642857,145.572545 147.642857,144.803571 Z M159,48.2678571 L159,144.803571 C159,148.707589 157.609933,152.049665 154.829799,154.829799 C152.049665,157.609933 148.707589,159 144.803571,159 L48.2678571,159 C44.3638393,159 41.0217634,157.609933 38.2416295,154.829799 C35.4614955,152.049665 34.0714286,148.707589 34.0714286,144.803571 L34.0714286,48.2678571 C34.0714286,44.3638393 35.4614955,41.0217634 38.2416295,38.2416295 C41.0217634,35.4614955 44.3638393,34.0714286 48.2678571,34.0714286 L144.803571,34.0714286 C148.707589,34.0714286 152.049665,35.4614955 154.829799,38.2416295 C157.609933,41.0217634 159,44.3638393 159,48.2678571 Z M124.928571,14.1964286 L124.928571,34.688817 L113.571429,34.688817 L113.571429,14.1964286 C113.571429,13.4274554 113.290458,12.7619978 112.728516,12.2000558 C112.166574,11.6381138 111.501116,11.3571429 110.732143,11.3571429 L14.1964286,11.3571429 C13.4274554,11.3571429 12.7619978,11.6381138 12.2000558,12.2000558 C11.6381138,12.7619978 11.3571429,13.4274554 11.3571429,14.1964286 L11.3571429,110.732143 C11.3571429,111.501116 11.6381138,112.166574 12.2000558,112.728516 C12.7619978,113.290458 13.4274554,113.571429 14.1964286,113.571429 L34.1883814,113.571429 L34.1883814,124.928571 L14.1964286,124.928571 C10.2924107,124.928571 6.95033482,123.538504 4.17020089,120.758371 C1.39006696,117.978237 0,114.636161 0,110.732143 L0,14.1964286 C0,10.2924107 1.39006696,6.95033482 4.17020089,4.17020089 C6.95033482,1.39006696 10.2924107,0 14.1964286,0 L110.732143,0 C114.636161,0 117.978237,1.39006696 120.758371,4.17020089 C123.538504,6.95033482 124.928571,10.2924107 124.928571,14.1964286 Z" id="Shape"></path>
        </g>
    </g>
</svg>