<?xml version="1.0" encoding="UTF-8"?>
<svg width="48px" height="48px" viewBox="0 0 48 48" version="1.1" xmlns="http://www.w3.org/2000/svg" xmlns:xlink="http://www.w3.org/1999/xlink">
    <!-- Generator: Sketch 55.2 (78181) - https://sketchapp.com -->
    <title>info</title>
    <desc>Created with Sketch.</desc>
    <g id="Page-1" stroke="none" stroke-width="1" fill="none" fill-rule="evenodd">
        <g id="info" fill="#007EFF" fill-rule="nonzero">
            <g id="Group" transform="translate(22.000000, 11.000000)">
                <path d="M1.945,4.774 C3.205,4.774 3.998,3.91 3.961,2.83 C3.961,1.715 3.205,0.851 2.018,0.851 C0.867,0.851 0.039,1.714 0.039,2.83 C0.039,3.91 0.83,4.774 1.945,4.774 Z" id="Path"></path>
                <path d="M3.602,23.941 L3.602,9.145 C3.602,7.842 2.549,7.732 2.251,7.727 L1.685,7.727 C1.685,7.727 0.434,7.739 0.434,8.879 L0.434,24.182 C0.457,24.528 0.609,25.149 1.435,25.149 L2.616,25.149 C2.967,25.121 3.602,24.938 3.602,23.941 Z" id="Path"></path>
            </g>
            <path d="M24,0 C10.746,0 0,10.744 0,24 C0,37.254 10.745,48 24,48 C37.256,48 48,37.254 48,24 C48,10.744 37.256,0 24,0 Z M24,44 C12.955,44 4,35.045 4,24 C4,12.953 12.955,4 24,4 C35.047,4 44,12.954 44,24 C44,35.045 35.047,44 24,44 Z" id="Shape"></path>
        </g>
    </g>
</svg>