<svg height="260pt" preserveAspectRatio="xMidYMid meet" viewBox="0 0 260 260" width="260pt" xmlns="http://www.w3.org/2000/svg"><g transform="matrix(.1 0 0 -.1 0 260)"><path d="m1153 2590c-291-33-558-163-769-374-187-187-304-404-360-671-23-111-23-379 0-490 56-267 173-484 360-671 150-149 304-245 514-319 151-53 199-60 397-60 194 0 240 7 395 57 204 66 374 170 526 322 187 187 304 404 360 671 23 111 23 379 0 490-60 285-216 560-413 727-245 209-502 311-814 322-68 3-157 1-196-4zm-123-909c148-14 345-14 566 0 96 6 177 10 178 8 2-2 7-23 11-45 6-40 5-42-32-65l-38-23 45-6c41-5 46-8 59-44 15-38 15-39-17-67l-31-28 45-3c40-3 47-7 67-40 20-36 20-39 4-73-19-39-19-39 20-24 26 9 30 7 69-38 40-46 44-48 105-53 58-4 64-7 67-28 3-17-2-25-17-29-17-4-19-8-10-19 22-27 39-16 39 25 0 36 2 39 23 33 61-15 97-64 97-133 0-73-72-137-141-127-17 2-24-5-37-37-58-152-220-343-360-425-92-54-244-107-331-115-97-9-106-12-121-40-17-32-22-31-43 4-15 25-23 29-84 34-298 26-569 233-689 524-23 56-24 58-58 55-79-6-146 54-146 131 0 52 21 88 72 122 39 26 50 29 116 26l74-3 50 52c46 48 52 51 75 41 34-15 38-9 18 28-15 29-14 33 7 71 21 37 26 40 68 40h44l-32 28c-33 27-33 27-19 67 13 37 17 40 55 43 23 2 42 6 42 10s-16 16-35 26c-23 13-34 25-31 35 3 9 7 34 11 57l6 40 62-12c34-7 114-18 177-23z"/><path d="m747 1270c-31-10-97-56-97-69 0-5 63-8 141-8l140-1-23 25c-43 46-110 68-161 53z"/><path d="m1717 1265c-37-13-87-50-87-65 0-4 61-7 135-7 149 0 156 4 89 49-49 33-89 40-137 23z"/><path d="m406 1112c-2-4-2-13 2-19 5-8 15-6 32 7l25 20h-27c-15 0-29-4-32-8z"/><path d="m1682 1083c-68-33-86-133-36-192 73-87 214-38 214 75 0 59-21 97-64 118-43 20-72 20-114-1z"/><path d="m764 1074c-41-20-64-63-64-117 0-58 35-102 91-117 35-10 47-8 84 10 67 32 90 95 61 165-27 65-106 92-172 59z"/></g></svg>